PathFileType	3	(X/Y/Z)	D:\VICON_DB\Goncalves\Pilot01\09-03-2026\walking_01.trc
DataRate	CameraRate	NumFrames	NumMarkers	Units	OrigDataRate	OrigDataStartFrame	OrigNumFrames
200.0	200.0	6	34	mm	200.0	1131	1809	
Frame#	Time	LASI			RASI			LPSI			RPSI			LTHI			LTHAP			LTHAD			LKNE			LKNM			LTIB			LTIAP			LTIAD			LANK			LMED			LHEE			LTOE			LFMH			LSMH			LVMH			RTHI			RTHAP			RTHAD			RKNE			RKNM			RTIB			RTIAP			RTIAD			RANK			RMED			RHEE			RTOE			RFMH			RSMH			RVMH			
		X1	Y1	Z1	X2	Y2	Z2	X3	Y3	Z3	X4	Y4	Z4	X5	Y5	Z5	X6	Y6	Z6	X7	Y7	Z7	X8	Y8	Z8	X9	Y9	Z9	X10	Y10	Z10	X11	Y11	Z11	X12	Y12	Z12	X13	Y13	Z13	X14	Y14	Z14	X15	Y15	Z15	X16	Y16	Z16	X17	Y17	Z17	X18	Y18	Z18	X19	Y19	Z19	X20	Y20	Z20	X21	Y21	Z21	X22	Y22	Z22	X23	Y23	Z23	X24	Y24	Z24	X25	Y25	Z25	X26	Y26	Z26	X27	Y27	Z27	X28	Y28	Z28	X29	Y29	Z29	X30	Y30	Z30	X31	Y31	Z31	X32	Y32	Z32	X33	Y33	Z33	X34	Y34	Z34	
1131	5.65	104.29395	880.30048	-1764.0323	364.94858	899.62286	-1771.1619				267.75174	933.47461	-1572.3333	90.834358	688.93054	-1804.0293	73.001976	749.30841	-1761.9062	66.615723	615.20764	-1785.2866	86.982567	454.23398	-1787.0721				91.04187	330.39478	-1640.2921	135.00325	341.27533	-1746.1471	119.97557	284.29712	-1651.7351	135.42004	213.81328	-1475.6222				192.63237	245.60254	-1447.7765	159.14157	148.57956	-1523.8992	190.03134	89.811325	-1531.8119				112.91763	87.593964	-1507.7958	400.50092	625.49445	-1780.4128	388.74832	758.66266	-1791.1914	360.72977	673.21375	-1826.8716	369.45551	487.44266	-1758.6492				366.65662	287.23434	-1749.0226	317.15619	343.47421	-1787.0615	310.3537	261.3071	-1780.6647	317.71634	59.515945	-1700.8438				277.9256	60.68298	-1660.6093	294.79745	67.471725	-1790.8276	265.06805	50.521648	-1839.9344				339.73557	19.301197	-1829.4912
1132	5.655	104.55511	881.22369	-1769.2061	365.19714	899.97668	-1776.1458				267.76862	934.302	-1577.4371	91.461975	691.30603	-1811.1338	73.304405	750.98248	-1768.2145	66.893799	617.38745	-1793.5564	87.37397	456.37653	-1797.1783				91.624329	330.53226	-1652.0212	135.67513	342.83728	-1757.6708	120.68407	284.61652	-1663.9821	136.07207	211.65599	-1488.8956				193.09758	243.00465	-1460.2693	160.01964	147.71925	-1538.4949	191.08005	89.368965	-1547.8242				113.94308	86.482307	-1524.0533	400.50479	625.39154	-1783.559	388.9733	758.52405	-1795.3838	361.08838	672.74823	-1830.6354	369.6561	487.43951	-1760.6443				366.73776	287.19077	-1749.9459	317.26324	343.28085	-1788.2007	310.41431	261.14209	-1781.458	317.6926	59.629238	-1700.8997				277.87244	60.890228	-1660.6937	294.82846	67.455231	-1790.9031	265.08044	50.477859	-1839.9796				339.75208	19.305424	-1829.4995
1133	5.66	104.82718	882.13562	-1774.3861	365.45657	900.29572	-1781.0981				267.7579	935.09387	-1582.5337	92.064728	693.68073	-1818.1851	73.592079	752.67444	-1774.5242	67.182037	619.57935	-1801.7356	87.783081	458.54861	-1807.1429				92.183502	330.52347	-1663.7412	136.34779	344.39917	-1769.1272	121.38629	284.82568	-1676.2632	136.68779	209.1671	-1502.3402				193.52173	240.04042	-1472.9126	160.86652	146.6132	-1553.2969	192.11314	88.734764	-1564.0864				114.96123	85.13533	-1540.5579	400.47226	625.28442	-1786.6929	389.17429	758.36725	-1799.5663	361.40402	672.26025	-1834.3759	369.83688	487.43988	-1762.5963				366.81015	287.15674	-1750.8363	317.35678	343.09708	-1789.3018	310.46683	260.99036	-1782.2223	317.65173	59.750011	-1700.9562				277.78922	61.091873	-1660.7922	294.86093	67.442818	-1790.9795	265.09891	50.433147	-1840.0225				339.76892	19.309637	-1829.507
1134	5.665	105.10867	883.03088	-1779.5736	365.72571	900.57953	-1786.0189				267.71536	935.84784	-1587.6218	92.638565	696.04218	-1825.1779	73.862122	754.37823	-1780.8334	67.476311	621.77161	-1809.8179	88.208801	460.73825	-1816.9608				92.71936	330.36639	-1675.4525	137.02289	345.95584	-1780.5092	122.08446	284.92438	-1688.5757	137.26712	206.36572	-1515.9548				193.90987	236.72289	-1485.7095	161.6712	145.27925	-1568.2997	193.10857	87.922867	-1580.5883				115.95032	83.581352	-1557.298	400.40256	625.17053	-1789.8137	389.34671	758.18939	-1803.7374	361.67102	671.74902	-1838.0883	369.99716	487.4425	-1764.5048				366.87567	287.13171	-1751.6897	317.44217	342.9223	-1790.3678	310.51703	260.85056	-1782.9602	317.59296	59.878605	-1701.0134				277.6731	61.287308	-1660.9054	294.89282	67.43457	-1791.0575	265.12286	50.387112	-1840.0631				339.78592	19.313684	-1829.5137
1135	5.67	105.39727	883.90479	-1784.7684	366.00262	900.82758	-1790.9081				267.63696	936.56238	-1592.7004	93.180115	698.37866	-1832.1066	74.11174	756.0863	-1787.1377	67.772453	623.9527	-1817.7979	88.649399	462.93344	-1826.6268				93.231529	330.06027	-1687.1559	137.70113	347.50208	-1791.8088	122.77979	284.91324	-1700.917	137.81021	203.27161	-1529.7399				194.26694	233.06557	-1498.6655	162.42308	143.73555	-1583.4973	194.04504	86.947975	-1597.3207				116.88876	81.848816	-1574.2628	400.29541	625.04724	-1792.9202	389.48596	757.98846	-1807.8945	361.88385	671.2146	-1841.7673	370.13632	487.44614	-1766.3693				366.93555	287.1153	-1752.5039	317.52341	342.7558	-1791.4026	310.56918	260.72137	-1783.6748	317.51639	60.01506	-1701.0709				277.52396	61.476467	-1661.0339	294.92227	67.430481	-1791.1371	265.15176	50.339371	-1840.1019				339.80304	19.317387	-1829.5188
1136	5.675	105.6901	884.75336	-1789.9718	366.28485	901.03992	-1795.7659				267.51944	937.23627	-1597.7692	93.686699	700.67914	-1838.9661	74.338463	757.78992	-1793.432	68.066345	626.11145	-1825.6711	89.102516	465.12265	-1836.137				93.719208	329.6059	-1698.8522	138.38205	349.03314	-1803.0198	123.47201	284.79401	-1713.2847	138.31697	199.90492	-1543.6946				194.59731	229.08255	-1511.7876	163.11208	142.00038	-1598.8845	194.90216	85.825531	-1614.2745				117.75576	79.965881	-1591.4419	400.15109	624.91266	-1796.0095	389.58722	757.76276	-1812.0343	362.03738	670.6579	-1845.4073	370.25391	487.44943	-1768.1899				366.98984	287.10696	-1753.2788	317.603	342.59689	-1792.4098	310.62546	260.60184	-1784.3698	317.42303	60.15929	-1701.1284				277.34436	61.65987	-1661.178	294.94742	67.430435	-1791.2185	265.18478	50.289684	-1840.1396				339.82004	19.320538	-1829.5219
